<?xml version="1.0" encoding="utf-8"?>
<!-- Generator: Adobe Illustrator 19.0.0, SVG Export Plug-In . SVG Version: 6.00 Build 0)  -->
<svg version="1.1" id="Layer_1" xmlns="http://www.w3.org/2000/svg" xmlns:xlink="http://www.w3.org/1999/xlink" x="0px" y="0px"
	 viewBox="-49 141 512 512" style="enable-background:new -49 141 512 512;" xml:space="preserve">
<style type="text/css">
	.st0{fill:#1BCCE4;stroke:#1BCCE4;stroke-miterlimit:10;}
	.st1{fill:#FAFCFC;stroke:#1BCCE4;stroke-miterlimit:10;}
	.st2{fill:#4D4D4D;stroke:#FFFFFF;stroke-miterlimit:10;}
	.st3{fill:#1BCCE4;stroke:#1BCCE4;stroke-width:0.25;stroke-miterlimit:10;}
	.st4{fill:#181818;}
</style>
<g>
	<path class="st0" d="M231.3,300.1c-16.1,2.2-30.8,6.8-44.3,16.1c-48.9,33.3-56.3,106.2-15.3,148.9c11.9,12.4,27.1,21.2,43.5,26
		c11.6,3.5,25.8,4.2,37.9,2.8c14.9-1.8,29.1-6.4,41.9-14.3c41.5-25.9,56-82,35.2-125.7c-7.7-16.2-20.3-29.5-35.2-39.2
		c-9.5-6.2-20.3-10.5-31.4-12.7C253.2,299.8,241.9,298.7,231.3,300.1z"/>
	<path class="st1" d="M233.5,317.2c-13,1.8-24.9,5.5-35.8,13c-39.6,26.9-45.5,85.8-12.4,120.3c9.6,10,21.9,17.1,35.2,21
		c9.4,2.8,20.9,3.4,30.6,2.2c12.1-1.4,23.5-5.1,33.9-11.6c33.6-20.9,45.2-66.3,28.5-101.6c-6.2-13.1-16.4-23.9-28.5-31.7
		c-7.7-5-16.4-8.5-25.4-10.3C251.1,316.9,242,316,233.5,317.2z"/>
</g>
<path class="st2" d="M223.5,209.4v54h56.4c-4.8-6.8-11.7-12.1-17.7-17.8c-6.8-6.3-13.3-13-20.2-19.3
	C236.1,220.7,230.8,213.2,223.5,209.4z"/>
<path class="st3" d="M282.9,493c-6.1,1.1-11.8,4.1-17.7,5.7c-10,2.7-21.1,3.6-31.4,3.1c-11.2-0.5-22.7-3-33.1-7.2
	c-6-2.5-12.2-7.2-18.5-8.5c-6-1.3-13.2-0.3-19.3-0.3h-38.7H85.4c-6.8,0-13.6-1.1-16.6-8.1c-4-9.4,6.7-14.5,14.2-14.5
	c24.5,0,48.9,0,73.4,0c-2.9-6.8-8.1-12.7-11.5-19.3c-1.3-2.7-2.3-7.1-5-8.8c-3.6-2.3-11.6-0.8-15.8-0.8H89.4c-4.9,0-11,1-15.3-1.6
	c-9.7-5.9-6.4-18,4-20.5c5.8-1.4,12.6-0.4,18.5-0.4h37.1c0-9.6-1.2-18.6,0-28.2H96.7c-6.1,0-13.4,1-19.3-0.4
	C67,380.4,65,368,74.1,362.6c4.7-2.8,10.9-1.8,16.1-1.8h32.2c4.2,0,12.2,1.5,15.8-0.8c2.6-1.7,3.4-6.2,4.6-8.8
	c2.9-6.4,8.1-11.9,10.2-18.5c-23.6,0-47.3,0.6-70.9,0c-7-0.2-17-6.1-13.7-14.5c2.8-7.2,9.4-8.1,16.1-8.1h40.3h35.5
	c5.3,0,11.8,1.1,16.9-0.4c6.1-1.8,11.9-7,17.7-9.9c11.2-5.4,23.9-9,36.3-9.8c11.9-0.8,24,0.5,35.5,3.5c5.5,1.4,10.6,4.4,16.1,5.3
	v-21.8h-51.6c-5.8,0-15.5,1.9-20-2.6c-4.4-4.4-2.6-13.5-2.6-19.2V206H85.4H54.8c-4.4,0-10-1-13.6,2c-5.4,4.4-4.1,12-4.1,18.2v45.1
	v189.5v50.8c0,6.4-1.7,15.2,4.1,19.6c4.3,3.3,11,2.1,16,2.1h37.9h132.2h35.5c4.8,0,11,1.1,15.3-1.6c4.7-3,4.9-7.9,4.9-12.9V493z"/>
<path class="st0" d="M187.2,361.9h35.5c6,0,12.6-0.8,18.5,0.2c6.2,1,12.4,7.9,9.8,14.3c-3.5,8.8-12.5,8.1-20.3,8.1h-54
	c-0.2,5.1-1,10.1-0.8,15.3c0.2,4.3,1.4,8.6,1.6,12.9h53.2c7.2,0,16-0.3,19.8,7.3c3.4,6.8-2.4,14.2-9.3,15.2
	c-5.7,0.8-11.9,0.2-17.7,0.2h-34.7c15.8,22.6,49.3,30.3,74.2,19.6c6.1-2.6,13.3-6.2,17.5-11.5c3.9-5,1.9-15.7,1.9-21.7v-49.2
	c0-5.5,1.8-15.1-0.8-20.1c-3.4-6.3-13.8-11.1-20.1-13.6c-20-7.9-43.3-4.6-60.5,8.2C195.5,350.9,189.8,355.6,187.2,361.9z"/>
<path class="st2" d="M331,463.6c-6.5,15.1-21.3,29.2-35.5,37.1c2,4.2,5.6,7.2,8.9,10.5l16.9,16.9l40.3,40.3
	c7.1,7.1,14,15.9,22.6,21.1c9.7,5.9,25,4.1,32.9-4.2c7.8-8.2,9.8-22.4,3.8-32.2c-5.1-8.2-13.8-15-20.6-21.8l-41.1-41.1l-16.9-16.9
	C338.8,469.8,335.5,465.8,331,463.6z"/>
<path class="st4" d="M62.8,529.1"/>
<path class="st4" d="M16.9,529.1"/>
<path class="st4" d="M-4.1,528.3"/>
</svg>
